<svg width="55" height="35" xmlns="http://www.w3.org/2000/svg"><g fill="#000" fill-rule="nonzero"><path d="M11 35C4.925 35 0 30.075 0 24s4.925-11 11-11 11 4.925 11 11-4.925 11-11 11zm0-4a7 7 0 1 0 0-14 7 7 0 0 0 0 14zM44 35c-6.075 0-11-4.925-11-11s4.925-11 11-11 11 4.925 11 11-4.925 11-11 11zm0-4a7 7 0 1 0 0-14 7 7 0 0 0 0 14z"/><path d="M18.682 9.96a2 2 0 0 1 1.595-.793h16.146c1.669 0 2.604 1.922 1.573 3.235L27.81 25.38a2 2 0 0 1-1.573.765H10.454c-1.652 0-2.592-1.89-1.595-3.207L18.682 9.96zm2.59 3.207l-6.796 8.978h10.788l7.047-8.978H21.27z"/><path d="M27.85 22.239a2 2 0 0 1-3.7 1.522l-7-17a2 2 0 0 1 3.7-1.522l7 17zM46.041 22.149a2 2 0 1 1-3.672 1.584L34.164 4.71a2 2 0 0 1 .989-2.603L39.255.188a2 2 0 0 1 1.695 3.624l-2.345 1.096 7.436 17.241z"/><path d="M15 6.25a2 2 0 1 1 0-4h7.288a2 2 0 1 1 0 4H15z"/></g></svg>