<svg width="488" height="144" xmlns="http://www.w3.org/2000/svg"><g fill="#000" fill-rule="evenodd"><g fill-rule="nonzero"><path d="M279.286 13.325c10.76-9.69 23.316-14.863 37.356-12.92 15.292 2.115 27.63 12.577 32.747 27.709 5.423 16.036 2.292 35.422-9.76 54.439a142.277 142.277 0 0 1-4.799 7.085l-1.124 1.577c-.642.9-1.01 1.412-1.183 1.647a3.5 3.5 0 1 1-5.625-4.166c.136-.184.504-.697 1.102-1.537a498.028 498.028 0 0 1 1.154-1.617 135.28 135.28 0 0 0 4.563-6.736c10.97-17.311 13.75-34.524 9.04-48.45-4.278-12.65-14.442-21.27-27.074-23.017-11.72-1.622-22.354 2.76-31.713 11.188a62.61 62.61 0 0 0-7.505 8.082c-.745.96-1.39 1.847-1.928 2.637-.313.46-.515.774-.604.92-1.364 2.235-4.611 2.235-5.975 0a24.92 24.92 0 0 0-.604-.92 52.869 52.869 0 0 0-1.928-2.637 62.61 62.61 0 0 0-7.505-8.082c-9.36-8.428-19.993-12.81-31.713-11.188-22.875 3.164-35.631 27.498-25.962 55.3.314.903.65 1.808 1.01 2.715a3.5 3.5 0 1 1-6.509 2.576 75.795 75.795 0 0 1-1.112-2.992c-11.052-31.775 4.127-60.73 31.614-64.533 14.04-1.943 26.596 3.23 37.356 12.92a69.551 69.551 0 0 1 8.34 8.98 69.551 69.551 0 0 1 8.34-8.98zm3.987 115.578c10.44-7.04 20.734-15.343 30.124-24.846a3.5 3.5 0 1 1 4.98 4.92c-9.74 9.858-20.389 18.446-31.19 25.73a188.908 188.908 0 0 1-10.52 6.621c-1.962 1.142-3.786 2.137-4.221 2.344a3.5 3.5 0 0 1-3.1-.05 53.514 53.514 0 0 1-1.01-.537c-.79-.43-1.702-.941-2.726-1.534a184.768 184.768 0 0 1-9.634-5.994c-9.941-6.598-19.88-14.384-29.167-23.328a186.65 186.65 0 0 1-3.26-3.217 3.5 3.5 0 0 1 4.98-4.92 179.65 179.65 0 0 0 3.136 3.095c8.96 8.63 18.572 16.16 28.182 22.537a177.8 177.8 0 0 0 9.266 5.767c.674.39 1.294.74 1.857 1.053 2.579-1.43 7.34-4.295 12.303-7.641z"/><path d="M274.628 89.458a3.5 3.5 0 0 1-3.392 2.638H180.5a3.5 3.5 0 0 1 0-7h88.013l8.495-33.457c.932-3.671 6.22-3.452 6.844.284l6.626 39.636 6.82-19.28c1.126-3.185 5.664-3.085 6.648.147l4.59 15.076H329.5a3.5 3.5 0 1 1 0 7h-23.557a3.5 3.5 0 0 1-3.348-2.48l-2.246-7.377-7.789 22.022c-1.205 3.408-6.156 2.975-6.752-.59l-6.114-36.573-5.066 19.954z"/><path d="M222 77c-6.075 0-11-4.925-11-11s4.925-11 11-11 11 4.925 11 11-4.925 11-11 11zm0-4a7 7 0 1 0 0-14 7 7 0 0 0 0 14zM255 77c-6.075 0-11-4.925-11-11s4.925-11 11-11 11 4.925 11 11-4.925 11-11 11zm0-4a7 7 0 1 0 0-14 7 7 0 0 0 0 14z"/><path d="M229.682 51.96a2 2 0 0 1 1.595-.793h16.146c1.669 0 2.604 1.922 1.573 3.235L238.81 67.38a2 2 0 0 1-1.573.765h-15.783c-1.652 0-2.592-1.89-1.595-3.207l9.823-12.978zm2.59 3.207l-6.796 8.978h10.788l7.047-8.978h-11.04z"/><path d="M238.85 64.239a2 2 0 0 1-3.7 1.522l-7-17a2 2 0 0 1 3.7-1.522l7 17zM257.041 64.149a2 2 0 1 1-3.672 1.584l-8.205-19.023a2 2 0 0 1 .989-2.603l4.102-1.919a2 2 0 0 1 1.695 3.624l-2.345 1.096 7.436 17.241z"/><path d="M226 48.25a2 2 0 1 1 0-4h7.288a2 2 0 1 1 0 4H226z"/></g><path d="M461 52.34c0-2.94 2.4-5.34 5.28-5.34 3 0 5.4 2.4 5.4 5.34s-2.4 5.34-5.4 5.34c-2.88 0-5.28-2.4-5.28-5.34zM36 92.04h-9.54V75.12H9.48v16.92H0V49.5h9.48v16.68h16.98V49.5H36zM63.66 81.48l7.62 2.16c-1.44 5.16-6.18 9.48-13.74 9.48-8.22 0-15.54-5.88-15.54-15.9 0-9.6 7.14-15.72 14.88-15.72 9.24 0 14.94 5.7 14.94 15.3 0 1.26-.12 2.64-.18 2.82H50.88c.18 3.36 3.24 5.76 6.78 5.76 3.3 0 5.16-1.56 6-3.9zm-12.6-7.74H63c-.12-2.28-1.68-5.04-6-5.04-3.84 0-5.76 2.82-5.94 5.04zM77 84c0-5.28 3.9-8.28 8.82-9l7.02-1.08c1.62-.24 2.16-1.02 2.16-2.04 0-1.74-1.5-3.24-4.38-3.24-3.18 0-4.92 2.16-5.1 4.38L77.6 71.4c.36-4.26 4.32-9.9 13.08-9.9 9.66 0 13.2 5.4 13.2 11.52V87.6c0 2.34.3 4.32.36 4.62h-8.22c-.06-.24-.3-1.32-.3-3.36-1.56 2.52-4.44 4.2-8.4 4.2C80.78 93.06 77 88.74 77 84zm12.54 2.46c2.7 0 5.46-1.32 5.46-5.94V79.2l-5.64.9c-1.92.3-3.36 1.2-3.36 3.3 0 1.56 1.02 3.06 3.54 3.06zM130.96 62.8v9c-1.02-.24-1.98-.3-2.88-.3-3.66 0-6.96 2.16-6.96 8.1v13.02H112V62.8h8.82v4.02c1.56-3.36 5.34-4.32 7.74-4.32.9 0 1.8.12 2.4.3zM149.28 53.5v8.7h5.82v7.98h-5.82v11.16c0 2.46 1.32 3.12 3.3 3.12.96 0 1.86-.18 2.4-.3v7.56c-.36.18-1.86.84-4.74.84-6.18 0-9.96-3.66-9.96-9.6V70.18H135V62.2h1.5c3.12 0 4.62-2.1 4.62-4.86V53.5h8.16zM403.7 59.06h-13.14v33.48h-9.48V59.06H368V50h35.7zM424.96 63.3v9c-1.02-.24-1.98-.3-2.88-.3-3.66 0-6.96 2.16-6.96 8.1v13.02H406V63.3h8.82v4.02c1.56-3.36 5.34-4.32 7.74-4.32.9 0 1.8.12 2.4.3zM428 84.5c0-5.28 3.9-8.28 8.82-9l7.02-1.08c1.62-.24 2.16-1.02 2.16-2.04 0-1.74-1.5-3.24-4.38-3.24-3.18 0-4.92 2.16-5.1 4.38l-7.92-1.62c.36-4.26 4.32-9.9 13.08-9.9 9.66 0 13.2 5.4 13.2 11.52V88.1c0 2.34.3 4.32.36 4.62h-8.22c-.06-.24-.3-1.32-.3-3.36-1.56 2.52-4.44 4.2-8.4 4.2-6.54 0-10.32-4.32-10.32-9.06zm12.54 2.46c2.7 0 5.46-1.32 5.46-5.94V79.7l-5.64.9c-1.92.3-3.36 1.2-3.36 3.3 0 1.56 1.02 3.06 3.54 3.06zM471.12 92.82H462V63h9.12zM487.12 92.44H478V49h9.12z"/></g></svg>